<mxfile modified="2024-02-26T19:53:56.240Z" host="Electron" agent="Mozilla/5.0 (X11; Linux x86_64) AppleWebKit/537.36 (KHTML, like Gecko) draw.io/23.0.2 Chrome/120.0.6099.109 Electron/28.1.0 Safari/537.36" etag="WajhSNsEjNYKccEBRL0z" version="23.0.2" type="device">
  <diagram id="WI9T0HZ2pTsCkuznbFz-" name="Page-1">
    <mxGraphModel dx="655" dy="390" grid="1" gridSize="10" guides="1" tooltips="1" connect="1" arrows="1" fold="1" page="1" pageScale="1" pageWidth="1169" pageHeight="827" math="0" shadow="0">
      <root>
        <mxCell id="0" />
        <mxCell id="1" parent="0" />
        <mxCell id="HdJFCHEr-xPxHPi2n-Cs-36" value="" style="sketch=0;aspect=fixed;pointerEvents=1;shadow=0;dashed=0;html=1;strokeColor=none;labelPosition=center;verticalLabelPosition=bottom;verticalAlign=top;align=center;fillColor=#00188D;shape=mxgraph.mscae.enterprise.internet" vertex="1" parent="1">
          <mxGeometry x="110" y="270" width="225.81" height="140" as="geometry" />
        </mxCell>
        <mxCell id="HdJFCHEr-xPxHPi2n-Cs-5" value="" style="edgeStyle=orthogonalEdgeStyle;rounded=0;orthogonalLoop=1;jettySize=auto;html=1;" edge="1" parent="1" source="AcxdMaKK0mU5kZiv2lnr-5" target="HdJFCHEr-xPxHPi2n-Cs-4">
          <mxGeometry relative="1" as="geometry" />
        </mxCell>
        <mxCell id="AcxdMaKK0mU5kZiv2lnr-5" value="Application Interface" style="aspect=fixed;html=1;perimeter=none;align=center;shadow=0;dashed=0;image;fontSize=12;image=img/lib/mscae/TaskVM.svg;" parent="1" vertex="1">
          <mxGeometry x="90" y="105" width="63" height="60" as="geometry" />
        </mxCell>
        <mxCell id="HdJFCHEr-xPxHPi2n-Cs-28" value="" style="edgeStyle=orthogonalEdgeStyle;rounded=0;orthogonalLoop=1;jettySize=auto;html=1;entryX=0;entryY=0.5;entryDx=0;entryDy=0;entryPerimeter=0;" edge="1" parent="1" source="AcxdMaKK0mU5kZiv2lnr-6" target="HdJFCHEr-xPxHPi2n-Cs-4">
          <mxGeometry relative="1" as="geometry" />
        </mxCell>
        <mxCell id="AcxdMaKK0mU5kZiv2lnr-6" value="JS Function&lt;br&gt;" style="aspect=fixed;html=1;perimeter=none;align=center;shadow=0;dashed=0;image;fontSize=12;image=img/lib/mscae/WebApp_WebJobs.svg;labelBackgroundColor=none;" parent="1" vertex="1">
          <mxGeometry x="140" y="339.00000000000006" width="64" height="64" as="geometry" />
        </mxCell>
        <mxCell id="HdJFCHEr-xPxHPi2n-Cs-4" value="load balancer&lt;br&gt;" style="verticalLabelPosition=bottom;html=1;verticalAlign=top;align=center;strokeColor=none;fillColor=#00BEF2;shape=mxgraph.azure.server_rack;" vertex="1" parent="1">
          <mxGeometry x="204" y="240" width="50" height="50" as="geometry" />
        </mxCell>
        <mxCell id="HdJFCHEr-xPxHPi2n-Cs-22" style="edgeStyle=orthogonalEdgeStyle;rounded=0;orthogonalLoop=1;jettySize=auto;html=1;entryX=0.5;entryY=0;entryDx=0;entryDy=0;entryPerimeter=0;" edge="1" parent="1" source="HdJFCHEr-xPxHPi2n-Cs-8" target="HdJFCHEr-xPxHPi2n-Cs-12">
          <mxGeometry relative="1" as="geometry">
            <mxPoint x="580" y="459.9999999999999" as="targetPoint" />
          </mxGeometry>
        </mxCell>
        <mxCell id="HdJFCHEr-xPxHPi2n-Cs-8" value="Web Crawler" style="verticalLabelPosition=bottom;html=1;verticalAlign=top;align=center;strokeColor=none;fillColor=#00BEF2;shape=mxgraph.azure.worker_role;" vertex="1" parent="1">
          <mxGeometry x="504" y="139" width="50" height="40" as="geometry" />
        </mxCell>
        <mxCell id="HdJFCHEr-xPxHPi2n-Cs-10" value="service API" style="verticalLabelPosition=bottom;html=1;verticalAlign=top;align=center;strokeColor=none;fillColor=#00BEF2;shape=mxgraph.azure.web_role;" vertex="1" parent="1">
          <mxGeometry x="250" y="339" width="50" height="40" as="geometry" />
        </mxCell>
        <mxCell id="HdJFCHEr-xPxHPi2n-Cs-12" value="JSON" style="verticalLabelPosition=bottom;html=1;verticalAlign=top;align=center;strokeColor=none;fillColor=#00BEF2;shape=mxgraph.azure.code_file;pointerEvents=1;" vertex="1" parent="1">
          <mxGeometry x="511.63" y="280" width="34.75" height="40" as="geometry" />
        </mxCell>
        <mxCell id="HdJFCHEr-xPxHPi2n-Cs-14" value="Public Web API" style="verticalLabelPosition=bottom;html=1;verticalAlign=top;align=center;strokeColor=none;fillColor=#00BEF2;shape=mxgraph.azure.cloud_service;" vertex="1" parent="1">
          <mxGeometry x="570" y="10" width="106" height="80" as="geometry" />
        </mxCell>
        <mxCell id="HdJFCHEr-xPxHPi2n-Cs-21" style="edgeStyle=orthogonalEdgeStyle;rounded=0;orthogonalLoop=1;jettySize=auto;html=1;entryX=0.429;entryY=0.981;entryDx=0;entryDy=0;entryPerimeter=0;" edge="1" parent="1" source="HdJFCHEr-xPxHPi2n-Cs-8" target="HdJFCHEr-xPxHPi2n-Cs-14">
          <mxGeometry relative="1" as="geometry" />
        </mxCell>
        <mxCell id="HdJFCHEr-xPxHPi2n-Cs-34" value="Cloud DMBS" style="image;sketch=0;aspect=fixed;html=1;points=[];align=center;fontSize=12;image=img/lib/mscae/Azure_Database_Migration_Services.svg;" vertex="1" parent="1">
          <mxGeometry x="430.63" y="360" width="81" height="81" as="geometry" />
        </mxCell>
        <mxCell id="HdJFCHEr-xPxHPi2n-Cs-35" style="edgeStyle=orthogonalEdgeStyle;rounded=0;orthogonalLoop=1;jettySize=auto;html=1;entryX=1.002;entryY=0.572;entryDx=0;entryDy=0;entryPerimeter=0;exitX=0.5;exitY=1;exitDx=0;exitDy=0;exitPerimeter=0;" edge="1" parent="1" source="HdJFCHEr-xPxHPi2n-Cs-12" target="HdJFCHEr-xPxHPi2n-Cs-34">
          <mxGeometry relative="1" as="geometry" />
        </mxCell>
        <mxCell id="HdJFCHEr-xPxHPi2n-Cs-39" style="edgeStyle=orthogonalEdgeStyle;rounded=0;orthogonalLoop=1;jettySize=auto;html=1;entryX=0.781;entryY=0.328;entryDx=0;entryDy=0;entryPerimeter=0;" edge="1" parent="1" source="HdJFCHEr-xPxHPi2n-Cs-4" target="AcxdMaKK0mU5kZiv2lnr-6">
          <mxGeometry relative="1" as="geometry" />
        </mxCell>
        <mxCell id="HdJFCHEr-xPxHPi2n-Cs-42" style="edgeStyle=orthogonalEdgeStyle;rounded=0;orthogonalLoop=1;jettySize=auto;html=1;entryX=0.5;entryY=0;entryDx=0;entryDy=0;entryPerimeter=0;exitX=1;exitY=0.5;exitDx=0;exitDy=0;exitPerimeter=0;" edge="1" parent="1" source="HdJFCHEr-xPxHPi2n-Cs-4" target="HdJFCHEr-xPxHPi2n-Cs-10">
          <mxGeometry relative="1" as="geometry" />
        </mxCell>
        <mxCell id="HdJFCHEr-xPxHPi2n-Cs-43" style="edgeStyle=orthogonalEdgeStyle;rounded=0;orthogonalLoop=1;jettySize=auto;html=1;entryX=-0.023;entryY=0.519;entryDx=0;entryDy=0;entryPerimeter=0;exitX=0.99;exitY=0.98;exitDx=0;exitDy=0;exitPerimeter=0;" edge="1" parent="1" source="HdJFCHEr-xPxHPi2n-Cs-10" target="HdJFCHEr-xPxHPi2n-Cs-34">
          <mxGeometry relative="1" as="geometry" />
        </mxCell>
        <mxCell id="HdJFCHEr-xPxHPi2n-Cs-44" style="edgeStyle=orthogonalEdgeStyle;rounded=0;orthogonalLoop=1;jettySize=auto;html=1;entryX=1;entryY=0.5;entryDx=0;entryDy=0;entryPerimeter=0;exitX=0.502;exitY=0.996;exitDx=0;exitDy=0;exitPerimeter=0;" edge="1" parent="1" source="HdJFCHEr-xPxHPi2n-Cs-34" target="HdJFCHEr-xPxHPi2n-Cs-12">
          <mxGeometry relative="1" as="geometry" />
        </mxCell>
        <mxCell id="HdJFCHEr-xPxHPi2n-Cs-45" style="edgeStyle=orthogonalEdgeStyle;rounded=0;orthogonalLoop=1;jettySize=auto;html=1;entryX=1;entryY=0.5;entryDx=0;entryDy=0;entryPerimeter=0;" edge="1" parent="1" source="HdJFCHEr-xPxHPi2n-Cs-12" target="HdJFCHEr-xPxHPi2n-Cs-10">
          <mxGeometry relative="1" as="geometry" />
        </mxCell>
        <mxCell id="HdJFCHEr-xPxHPi2n-Cs-46" style="edgeStyle=orthogonalEdgeStyle;rounded=0;orthogonalLoop=1;jettySize=auto;html=1;entryX=0.963;entryY=0.294;entryDx=0;entryDy=0;entryPerimeter=0;" edge="1" parent="1" source="HdJFCHEr-xPxHPi2n-Cs-10" target="AcxdMaKK0mU5kZiv2lnr-6">
          <mxGeometry relative="1" as="geometry">
            <Array as="points">
              <mxPoint x="230" y="358" />
            </Array>
          </mxGeometry>
        </mxCell>
        <mxCell id="HdJFCHEr-xPxHPi2n-Cs-47" style="edgeStyle=orthogonalEdgeStyle;rounded=0;orthogonalLoop=1;jettySize=auto;html=1;entryX=0.444;entryY=1.042;entryDx=0;entryDy=0;entryPerimeter=0;" edge="1" parent="1" source="AcxdMaKK0mU5kZiv2lnr-6" target="AcxdMaKK0mU5kZiv2lnr-5">
          <mxGeometry relative="1" as="geometry">
            <Array as="points">
              <mxPoint x="118" y="371" />
            </Array>
          </mxGeometry>
        </mxCell>
      </root>
    </mxGraphModel>
  </diagram>
</mxfile>
